<?xml version="1.0" standalone="no"?>
<!DOCTYPE svg PUBLIC "-//W3C//DTD SVG 20010904//EN"
 "http://www.w3.org/TR/2001/REC-SVG-20010904/DTD/svg10.dtd">
<svg version="1.0" xmlns="http://www.w3.org/2000/svg"
 width="700.000000pt" height="700.000000pt" viewBox="0 0 700.000000 700.000000"
 preserveAspectRatio="xMidYMid meet">
<metadata>
Created by potrace 1.11, written by Peter Selinger 2001-2013
</metadata>
<g transform="translate(0.000000,700.000000) scale(0.100000,-0.100000)"
fill="#000000" stroke="none">
<path d="M6295 6684 c-120 -43 -254 -90 -425 -149 -91 -31 -187 -65 -215 -75
-58 -21 -324 -115 -1100 -385 -121 -43 -296 -104 -390 -137 -93 -33 -188 -66
-210 -73 -22 -8 -78 -27 -125 -44 -175 -61 -442 -155 -660 -231 -124 -43 -256
-89 -295 -103 -38 -14 -124 -44 -190 -67 -66 -23 -163 -57 -215 -75 -381 -134
-709 -249 -730 -255 -14 -5 -97 -34 -185 -65 -88 -31 -171 -61 -185 -65 -25
-8 -151 -52 -645 -225 -137 -48 -269 -99 -293 -113 -78 -45 -142 -156 -142
-247 0 -86 58 -195 127 -238 21 -13 198 -95 393 -181 195 -87 378 -168 405
-181 28 -12 210 -94 405 -180 195 -86 373 -165 395 -175 120 -54 785 -349 871
-387 l101 -44 178 -402 c98 -221 196 -439 217 -485 21 -46 38 -85 38 -87 0 -3
13 -33 29 -67 16 -35 109 -243 206 -463 98 -220 189 -425 202 -455 29 -64 36
-79 98 -220 26 -58 55 -123 65 -145 10 -22 37 -83 60 -135 52 -118 94 -171
164 -205 131 -64 294 -23 370 92 14 21 70 169 126 328 55 160 107 306 115 325
8 19 41 114 74 210 33 96 85 247 116 335 31 88 63 178 70 200 7 22 39 112 70
200 31 88 92 261 135 385 43 124 106 304 140 400 33 96 70 202 81 235 11 33
24 69 29 80 5 11 30 81 55 155 77 222 246 705 391 1118 36 103 74 212 84 242
10 30 43 125 73 210 30 85 87 247 126 360 39 113 82 234 95 270 14 36 36 99
50 140 14 41 48 140 76 220 28 80 60 170 70 200 10 30 37 107 60 170 55 152
63 185 57 246 -15 148 -146 265 -296 263 -25 0 -77 -11 -116 -25z m-1006 -979
c-6 -7 -2011 -2012 -2082 -2084 l-65 -63 -169 75 c-93 41 -189 84 -214 95 -24
11 -107 48 -184 82 -77 34 -160 71 -185 82 -25 11 -182 81 -350 155 -168 74
-334 148 -370 165 -36 16 -112 50 -170 75 -58 25 -108 48 -112 52 -4 4 54 28
130 55 75 26 232 81 347 121 116 40 289 101 385 135 96 34 270 94 385 135 116
40 296 103 400 140 105 37 201 70 215 75 14 4 97 34 185 65 177 62 272 95 610
213 231 81 533 187 635 224 30 11 62 21 70 23 8 2 128 44 265 93 228 82 286
101 274 87z m427 -414 c-5 -7 -314 -886 -553 -1571 -89 -257 -132 -378 -213
-610 -34 -96 -97 -276 -140 -400 -237 -680 -422 -1206 -454 -1295 l-15 -40
-14 35 c-19 44 -87 198 -120 270 -13 30 -66 150 -117 265 -51 116 -96 215
-100 220 -4 6 -11 21 -15 35 -4 14 -23 57 -40 95 -18 39 -68 149 -110 245 -43
96 -93 208 -111 248 -19 41 -34 75 -34 77 0 4 -21 50 -92 208 l-31 68 34 35
c78 82 2123 2124 2126 2124 2 0 2 -4 -1 -9z"/>
</g>
</svg>
